ffmpeg started on 2025-06-07 at 15:18:17
Report written to "D:\Convert\FFMetrics\reports\psnr_report-6.txt"
Log level: 32
Command line:
ffmpeg -hide_banner -nostdin -i "G:\\\xc0\xed\xe8\xec\xe5\\\xce\xed\xe3\xee\xe8\xed\xe3\xe8\\!_36_\xce\xf1\xe5\xed\xfc_2024\\DreamCast\\\xd1\xee\xe1\xeb\xe0\xe7\xed 2,5-\xec\xe5\xf0\xed\xee\xe3\xee \xe8\xe7\xec\xe5\xf0\xe5\xed\xe8\xff\\[DC] 2-5 Jigen no Ririsa - 11_Telegram_HEVC.mkv" -i "G:\\\xc0\xed\xe8\xec\xe5\\\xce\xed\xe3\xee\xe8\xed\xe3\xe8\\!_36_\xce\xf1\xe5\xed\xfc_2024\\DreamCast\\\xd1\xee\xe1\xeb\xe0\xe7\xed 2,5-\xec\xe5\xf0\xed\xee\xe3\xee \xe8\xe7\xec\xe5\xf0\xe5\xed\xe8\xff\\[DC] 2-5 Jigen no Ririsa - 11_Telegram.mp4" -lavfi "[0:v]settb=AVTB,setpts=PTS-STARTPTS,format=pix_fmts=yuv420p10,fps=24000/1001,scale=1920:1080:flags=bicubic[main];[1:v]settb=AVTB,setpts=PTS-STARTPTS,format=pix_fmts=yuv420p,fps=24000/1001,scale=1920:1080:flags=bicubic[ref];[main][ref]psnr=eof_action=endall:stats_file='D\\:/Convert/FFMetrics/logs/psnr_logfile-6.txt'" -f null -
Input #0, matroska,webm, from 'G:\Аниме\Онгоинги\!_36_Осень_2024\DreamCast\Соблазн 2,5-мерного измерения\[DC] 2-5 Jigen no Ririsa - 11_Telegram_HEVC.mkv':
  Metadata:
    COMPATIBLE_BRANDS: isomiso2avc1mp41
    MAJOR_BRAND     : isom
    MINOR_VERSION   : 512
    ENCODER         : Lavf61.7.100
  Duration: 00:24:09.13, start: -0.021000, bitrate: 1378 kb/s
  Stream #0:0: Video: hevc (Main 10), yuv420p10le(tv, bt709, progressive), 1920x1080 [SAR 1:1 DAR 16:9], 23.98 fps, 23.98 tbr, 1k tbn (default)
      Metadata:
        HANDLER_NAME    : VideoHandler
        VENDOR_ID       : [0][0][0][0]
        ENCODER         : Lavc61.19.100 libx265
        BPS             : 1180999
        DURATION        : 00:24:08.989708333
        NUMBER_OF_FRAMES: 34741
        NUMBER_OF_BYTES : 213906938
        _STATISTICS_WRITING_APP: mkvpropedit v66.0.0 ('Josie') 64-bit
        _STATISTICS_WRITING_DATE_UTC: 2025-06-04 11:28:00
        _STATISTICS_TAGS: BPS DURATION NUMBER_OF_FRAMES NUMBER_OF_BYTES
  Stream #0:1: Audio: aac (LC), 48000 Hz, stereo, fltp (default)
      Metadata:
        HANDLER_NAME    : SoundHandler
        VENDOR_ID       : [0][0][0][0]
        ENCODER         : Lavc61.19.100 aac
        BPS             : 193495
        DURATION        : 00:24:09.130000000
        NUMBER_OF_FRAMES: 67929
        NUMBER_OF_BYTES : 35050028
        _STATISTICS_WRITING_APP: mkvpropedit v66.0.0 ('Josie') 64-bit
        _STATISTICS_WRITING_DATE_UTC: 2025-06-04 11:28:00
        _STATISTICS_TAGS: BPS DURATION NUMBER_OF_FRAMES NUMBER_OF_BYTES
Input #1, mov,mp4,m4a,3gp,3g2,mj2, from 'G:\Аниме\Онгоинги\!_36_Осень_2024\DreamCast\Соблазн 2,5-мерного измерения\[DC] 2-5 Jigen no Ririsa - 11_Telegram.mp4':
  Metadata:
    major_brand     : isom
    minor_version   : 512
    compatible_brands: isomiso2avc1mp41
    encoder         : Lavf61.1.100
  Duration: 00:24:09.08, start: 0.000000, bitrate: 3898 kb/s
  Stream #1:0[0x1](und): Video: h264 (High) (avc1 / 0x31637661), yuv420p(tv, bt709, progressive), 1920x1080 [SAR 1:1 DAR 16:9], 3750 kb/s, 23.98 fps, 23.98 tbr, 24k tbn (default)
      Metadata:
        handler_name    : VideoHandler
        vendor_id       : [0][0][0][0]
        encoder         : Lavc61.3.100 h264_qsv
  Stream #1:1[0x2](und): Audio: aac (HE-AACv2) (mp4a / 0x6134706D), 48000 Hz, stereo, fltp, 144 kb/s (default)
      Metadata:
        handler_name    : SoundHandler
        vendor_id       : [0][0][0][0]
Stream mapping:
  Stream #0:0 (hevc) -> settb:default
  Stream #1:0 (h264) -> settb:default
  psnr:default -> Stream #0:0 (wrapped_avframe)
  Stream #0:1 -> #0:1 (aac (native) -> pcm_s16le (native))
Output #0, null, to 'pipe:':
  Metadata:
    COMPATIBLE_BRANDS: isomiso2avc1mp41
    MAJOR_BRAND     : isom
    MINOR_VERSION   : 512
    encoder         : Lavf61.7.100
  Stream #0:0: Video: wrapped_avframe, yuv420p10le(tv, bt709, progressive), 1920x1080 [SAR 1:1 DAR 16:9], q=2-31, 200 kb/s, 23.98 fps, 23.98 tbn
      Metadata:
        encoder         : Lavc61.19.100 wrapped_avframe
  Stream #0:1: Audio: pcm_s16le, 48000 Hz, stereo, s16, 1536 kb/s (default)
      Metadata:
        HANDLER_NAME    : SoundHandler
        VENDOR_ID       : [0][0][0][0]
        _STATISTICS_TAGS: BPS DURATION NUMBER_OF_FRAMES NUMBER_OF_BYTES
        BPS             : 193495
        DURATION        : 00:24:09.130000000
        NUMBER_OF_FRAMES: 67929
        NUMBER_OF_BYTES : 35050028
        _STATISTICS_WRITING_APP: mkvpropedit v66.0.0 ('Josie') 64-bit
        _STATISTICS_WRITING_DATE_UTC: 2025-06-04 11:28:00
        encoder         : Lavc61.19.100 pcm_s16le
frame=  186 fps=0.0 q=-0.0 size=N/A time=00:00:07.75 bitrate=N/A speed=14.9x    frame=  387 fps=375 q=-0.0 size=N/A time=00:00:16.14 bitrate=N/A speed=15.6x    frame=  605 fps=390 q=-0.0 size=N/A time=00:00:25.23 bitrate=N/A speed=16.3x    frame=  811 fps=394 q=-0.0 size=N/A time=00:00:33.82 bitrate=N/A speed=16.4x    frame= 1089 fps=421 q=-0.0 size=N/A time=00:00:45.42 bitrate=N/A speed=17.6x    frame= 1285 fps=416 q=-0.0 size=N/A time=00:00:53.59 bitrate=N/A speed=17.3x    frame= 1497 fps=414 q=-0.0 size=N/A time=00:01:02.43 bitrate=N/A speed=17.3x    frame= 1690 fps=410 q=-0.0 size=N/A time=00:01:10.48 bitrate=N/A speed=17.1x    frame= 1917 fps=413 q=-0.0 size=N/A time=00:01:19.95 bitrate=N/A speed=17.2x    frame= 2132 fps=413 q=-0.0 size=N/A time=00:01:28.92 bitrate=N/A speed=17.2x    frame= 2323 fps=410 q=-0.0 size=N/A time=00:01:36.88 bitrate=N/A speed=17.1x    frame= 2554 fps=413 q=-0.0 size=N/A time=00:01:46.52 bitrate=N/A speed=17.2x    frame= 2749 fps=410 q=-0.0 size=N/A time=00:01:54.65 bitrate=N/A speed=17.1x    frame= 2953 fps=409 q=-0.0 size=N/A time=00:02:03.16 bitrate=N/A speed=17.1x    frame= 3152 fps=408 q=-0.0 size=N/A time=00:02:11.46 bitrate=N/A speed=  17x    frame= 3363 fps=407 q=-0.0 size=N/A time=00:02:20.26 bitrate=N/A speed=  17x    frame= 3584 fps=409 q=-0.0 size=N/A time=00:02:29.48 bitrate=N/A speed=  17x    frame= 3800 fps=410 q=-0.0 size=N/A time=00:02:38.49 bitrate=N/A speed=17.1x    frame= 4048 fps=413 q=-0.0 size=N/A time=00:02:48.83 bitrate=N/A speed=17.2x    frame= 4309 fps=418 q=-0.0 size=N/A time=00:02:59.72 bitrate=N/A speed=17.4x    frame= 4551 fps=420 q=-0.0 size=N/A time=00:03:09.81 bitrate=N/A speed=17.5x    frame= 4763 fps=420 q=-0.0 size=N/A time=00:03:18.65 bitrate=N/A speed=17.5x    frame= 4959 fps=418 q=-0.0 size=N/A time=00:03:26.83 bitrate=N/A speed=17.4x    frame= 5185 fps=419 q=-0.0 size=N/A time=00:03:36.25 bitrate=N/A speed=17.5x    frame= 5388 fps=418 q=-0.0 size=N/A time=00:03:44.72 bitrate=N/A speed=17.4x    frame= 5611 fps=418 q=-0.0 size=N/A time=00:03:54.02 bitrate=N/A speed=17.4x    frame= 5836 fps=419 q=-0.0 size=N/A time=00:04:03.40 bitrate=N/A speed=17.5x    frame= 6058 fps=419 q=-0.0 size=N/A time=00:04:12.66 bitrate=N/A speed=17.5x    frame= 6299 fps=421 q=-0.0 size=N/A time=00:04:22.72 bitrate=N/A speed=17.6x    frame= 6567 fps=424 q=-0.0 size=N/A time=00:04:33.89 bitrate=N/A speed=17.7x    frame= 6814 fps=426 q=-0.0 size=N/A time=00:04:44.20 bitrate=N/A speed=17.8x    frame= 7068 fps=428 q=-0.0 size=N/A time=00:04:54.79 bitrate=N/A speed=17.9x    frame= 7295 fps=429 q=-0.0 size=N/A time=00:05:04.26 bitrate=N/A speed=17.9x    frame= 7516 fps=429 q=-0.0 size=N/A time=00:05:13.47 bitrate=N/A speed=17.9x    frame= 7762 fps=430 q=-0.0 size=N/A time=00:05:23.74 bitrate=N/A speed=17.9x    frame= 7997 fps=431 q=-0.0 size=N/A time=00:05:33.54 bitrate=N/A speed=  18x    frame= 8238 fps=432 q=-0.0 size=N/A time=00:05:43.59 bitrate=N/A speed=  18x    frame= 8452 fps=431 q=-0.0 size=N/A time=00:05:52.51 bitrate=N/A speed=  18x    frame= 8680 fps=431 q=-0.0 size=N/A time=00:06:02.02 bitrate=N/A speed=  18x    frame= 8892 fps=431 q=-0.0 size=N/A time=00:06:10.87 bitrate=N/A speed=  18x    frame= 9114 fps=431 q=-0.0 size=N/A time=00:06:20.12 bitrate=N/A speed=  18x    frame= 9375 fps=433 q=-0.0 size=N/A time=00:06:31.01 bitrate=N/A speed=  18x    frame= 9612 fps=433 q=-0.0 size=N/A time=00:06:40.90 bitrate=N/A speed=18.1x    frame= 9838 fps=434 q=-0.0 size=N/A time=00:06:50.32 bitrate=N/A speed=18.1x    frame=10076 fps=434 q=-0.0 size=N/A time=00:07:00.25 bitrate=N/A speed=18.1x    frame=10287 fps=434 q=-0.0 size=N/A time=00:07:09.05 bitrate=N/A speed=18.1x    frame=10518 fps=434 q=-0.0 size=N/A time=00:07:18.72 bitrate=N/A speed=18.1x    frame=10729 fps=434 q=-0.0 size=N/A time=00:07:27.48 bitrate=N/A speed=18.1x    frame=10933 fps=433 q=-0.0 size=N/A time=00:07:35.99 bitrate=N/A speed=  18x    frame=11200 fps=434 q=-0.0 size=N/A time=00:07:47.13 bitrate=N/A speed=18.1x    frame=11451 fps=435 q=-0.0 size=N/A time=00:07:57.60 bitrate=N/A speed=18.2x    frame=11679 fps=436 q=-0.0 size=N/A time=00:08:07.11 bitrate=N/A speed=18.2x    frame=11933 fps=436 q=-0.0 size=N/A time=00:08:17.70 bitrate=N/A speed=18.2x    frame=12177 fps=437 q=-0.0 size=N/A time=00:08:27.88 bitrate=N/A speed=18.2x    frame=12416 fps=438 q=-0.0 size=N/A time=00:08:37.85 bitrate=N/A speed=18.3x    frame=12683 fps=439 q=-0.0 size=N/A time=00:08:48.98 bitrate=N/A speed=18.3x    frame=12947 fps=440 q=-0.0 size=N/A time=00:09:00.03 bitrate=N/A speed=18.4x    frame=13198 fps=441 q=-0.0 size=N/A time=00:09:10.46 bitrate=N/A speed=18.4x    frame=13422 fps=441 q=-0.0 size=N/A time=00:09:19.80 bitrate=N/A speed=18.4x    frame=13693 fps=442 q=-0.0 size=N/A time=00:09:31.11 bitrate=N/A speed=18.5x    frame=13956 fps=443 q=-0.0 size=N/A time=00:09:42.08 bitrate=N/A speed=18.5x    frame=14223 fps=445 q=-0.0 size=N/A time=00:09:53.21 bitrate=N/A speed=18.5x    frame=14474 fps=445 q=-0.0 size=N/A time=00:10:03.68 bitrate=N/A speed=18.6x    frame=14717 fps=446 q=-0.0 size=N/A time=00:10:13.82 bitrate=N/A speed=18.6x    frame=14962 fps=446 q=-0.0 size=N/A time=00:10:24.04 bitrate=N/A speed=18.6x    frame=15225 fps=447 q=-0.0 size=N/A time=00:10:35.00 bitrate=N/A speed=18.6x    frame=15491 fps=448 q=-0.0 size=N/A time=00:10:46.10 bitrate=N/A speed=18.7x    frame=15742 fps=448 q=-0.0 size=N/A time=00:10:56.57 bitrate=N/A speed=18.7x    frame=15999 fps=449 q=-0.0 size=N/A time=00:11:07.29 bitrate=N/A speed=18.7x    frame=16246 fps=450 q=-0.0 size=N/A time=00:11:17.59 bitrate=N/A speed=18.8x    frame=16463 fps=449 q=-0.0 size=N/A time=00:11:26.64 bitrate=N/A speed=18.7x    frame=16732 fps=450 q=-0.0 size=N/A time=00:11:37.86 bitrate=N/A speed=18.8x    frame=16990 fps=451 q=-0.0 size=N/A time=00:11:48.62 bitrate=N/A speed=18.8x    frame=17266 fps=452 q=-0.0 size=N/A time=00:12:00.13 bitrate=N/A speed=18.9x    frame=17527 fps=453 q=-0.0 size=N/A time=00:12:11.02 bitrate=N/A speed=18.9x    frame=17798 fps=454 q=-0.0 size=N/A time=00:12:22.32 bitrate=N/A speed=18.9x    frame=18057 fps=454 q=-0.0 size=N/A time=00:12:33.12 bitrate=N/A speed=  19x    frame=18284 fps=454 q=-0.0 size=N/A time=00:12:42.59 bitrate=N/A speed=18.9x    frame=18456 fps=453 q=-0.0 size=N/A time=00:12:49.76 bitrate=N/A speed=18.9x    frame=18697 fps=453 q=-0.0 size=N/A time=00:12:59.82 bitrate=N/A speed=18.9x    frame=18959 fps=454 q=-0.0 size=N/A time=00:13:10.74 bitrate=N/A speed=18.9x    frame=19185 fps=453 q=-0.0 size=N/A time=00:13:20.17 bitrate=N/A speed=18.9x    frame=19433 fps=454 q=-0.0 size=N/A time=00:13:30.51 bitrate=N/A speed=18.9x    frame=19662 fps=454 q=-0.0 size=N/A time=00:13:40.06 bitrate=N/A speed=18.9x    frame=19897 fps=454 q=-0.0 size=N/A time=00:13:49.87 bitrate=N/A speed=18.9x    frame=20141 fps=454 q=-0.0 size=N/A time=00:14:00.04 bitrate=N/A speed=18.9x    frame=20398 fps=454 q=-0.0 size=N/A time=00:14:10.76 bitrate=N/A speed=  19x    frame=20655 fps=455 q=-0.0 size=N/A time=00:14:21.48 bitrate=N/A speed=  19x    frame=20911 fps=455 q=-0.0 size=N/A time=00:14:32.16 bitrate=N/A speed=  19x    frame=21142 fps=455 q=-0.0 size=N/A time=00:14:41.79 bitrate=N/A speed=  19x    frame=21370 fps=455 q=-0.0 size=N/A time=00:14:51.30 bitrate=N/A speed=  19x    frame=21621 fps=455 q=-0.0 size=N/A time=00:15:01.77 bitrate=N/A speed=  19x    frame=21880 fps=456 q=-0.0 size=N/A time=00:15:12.57 bitrate=N/A speed=  19x    frame=22116 fps=456 q=-0.0 size=N/A time=00:15:22.42 bitrate=N/A speed=  19x    frame=22365 fps=456 q=-0.0 size=N/A time=00:15:32.80 bitrate=N/A speed=  19x    frame=22616 fps=456 q=-0.0 size=N/A time=00:15:43.27 bitrate=N/A speed=  19x    frame=22876 fps=457 q=-0.0 size=N/A time=00:15:54.11 bitrate=N/A speed=19.1x    frame=23159 fps=458 q=-0.0 size=N/A time=00:16:05.92 bitrate=N/A speed=19.1x    frame=23393 fps=458 q=-0.0 size=N/A time=00:16:15.68 bitrate=N/A speed=19.1x    frame=23648 fps=458 q=-0.0 size=N/A time=00:16:26.31 bitrate=N/A speed=19.1x    frame=23849 fps=458 q=-0.0 size=N/A time=00:16:34.70 bitrate=N/A speed=19.1x    frame=24080 fps=457 q=-0.0 size=N/A time=00:16:44.33 bitrate=N/A speed=19.1x    frame=24344 fps=458 q=-0.0 size=N/A time=00:16:55.34 bitrate=N/A speed=19.1x    frame=24613 fps=459 q=-0.0 size=N/A time=00:17:06.56 bitrate=N/A speed=19.1x    frame=24876 fps=459 q=-0.0 size=N/A time=00:17:17.53 bitrate=N/A speed=19.1x    frame=25128 fps=459 q=-0.0 size=N/A time=00:17:28.04 bitrate=N/A speed=19.2x    frame=25367 fps=459 q=-0.0 size=N/A time=00:17:38.01 bitrate=N/A speed=19.2x    frame=25566 fps=459 q=-0.0 size=N/A time=00:17:46.31 bitrate=N/A speed=19.1x    frame=25810 fps=459 q=-0.0 size=N/A time=00:17:56.49 bitrate=N/A speed=19.1x    frame=26076 fps=459 q=-0.0 size=N/A time=00:18:07.58 bitrate=N/A speed=19.2x    frame=26338 fps=460 q=-0.0 size=N/A time=00:18:18.51 bitrate=N/A speed=19.2x    frame=26568 fps=460 q=-0.0 size=N/A time=00:18:28.10 bitrate=N/A speed=19.2x    frame=26830 fps=460 q=-0.0 size=N/A time=00:18:39.03 bitrate=N/A speed=19.2x    frame=27063 fps=460 q=-0.0 size=N/A time=00:18:48.75 bitrate=N/A speed=19.2x    frame=27299 fps=460 q=-0.0 size=N/A time=00:18:58.59 bitrate=N/A speed=19.2x    frame=27568 fps=461 q=-0.0 size=N/A time=00:19:09.81 bitrate=N/A speed=19.2x    frame=27831 fps=461 q=-0.0 size=N/A time=00:19:20.78 bitrate=N/A speed=19.2x    frame=28094 fps=461 q=-0.0 size=N/A time=00:19:31.75 bitrate=N/A speed=19.2x    frame=28331 fps=461 q=-0.0 size=N/A time=00:19:41.63 bitrate=N/A speed=19.2x    frame=28602 fps=462 q=-0.0 size=N/A time=00:19:52.94 bitrate=N/A speed=19.3x    frame=28854 fps=462 q=-0.0 size=N/A time=00:20:03.45 bitrate=N/A speed=19.3x    frame=29110 fps=462 q=-0.0 size=N/A time=00:20:14.12 bitrate=N/A speed=19.3x    frame=29335 fps=462 q=-0.0 size=N/A time=00:20:23.51 bitrate=N/A speed=19.3x    frame=29530 fps=462 q=-0.0 size=N/A time=00:20:31.64 bitrate=N/A speed=19.2x    frame=29746 fps=461 q=-0.0 size=N/A time=00:20:40.65 bitrate=N/A speed=19.2x    frame=29908 fps=460 q=-0.0 size=N/A time=00:20:47.41 bitrate=N/A speed=19.2x    frame=30078 fps=459 q=-0.0 size=N/A time=00:20:54.50 bitrate=N/A speed=19.1x    frame=30333 fps=459 q=-0.0 size=N/A time=00:21:05.13 bitrate=N/A speed=19.2x    frame=30593 fps=459 q=-0.0 size=N/A time=00:21:15.98 bitrate=N/A speed=19.2x    frame=30797 fps=459 q=-0.0 size=N/A time=00:21:24.49 bitrate=N/A speed=19.1x    frame=31059 fps=459 q=-0.0 size=N/A time=00:21:35.41 bitrate=N/A speed=19.2x    frame=31336 fps=460 q=-0.0 size=N/A time=00:21:46.97 bitrate=N/A speed=19.2x    frame=31612 fps=461 q=-0.0 size=N/A time=00:21:58.48 bitrate=N/A speed=19.2x    frame=31875 fps=461 q=-0.0 size=N/A time=00:22:09.45 bitrate=N/A speed=19.2x    frame=32121 fps=461 q=-0.0 size=N/A time=00:22:19.71 bitrate=N/A speed=19.2x    frame=32376 fps=461 q=-0.0 size=N/A time=00:22:30.34 bitrate=N/A speed=19.2x    frame=32620 fps=461 q=-0.0 size=N/A time=00:22:40.52 bitrate=N/A speed=19.2x    frame=32824 fps=461 q=-0.0 size=N/A time=00:22:49.03 bitrate=N/A speed=19.2x    frame=33008 fps=460 q=-0.0 size=N/A time=00:22:56.70 bitrate=N/A speed=19.2x    frame=33205 fps=460 q=-0.0 size=N/A time=00:23:04.92 bitrate=N/A speed=19.2x    frame=33391 fps=459 q=-0.0 size=N/A time=00:23:12.68 bitrate=N/A speed=19.1x    frame=33569 fps=458 q=-0.0 size=N/A time=00:23:20.10 bitrate=N/A speed=19.1x    frame=33799 fps=458 q=-0.0 size=N/A time=00:23:29.69 bitrate=N/A speed=19.1x    frame=34014 fps=458 q=-0.0 size=N/A time=00:23:38.66 bitrate=N/A speed=19.1x    frame=34206 fps=457 q=-0.0 size=N/A time=00:23:46.67 bitrate=N/A speed=19.1x    frame=34375 fps=456 q=-0.0 size=N/A time=00:23:53.72 bitrate=N/A speed=  19x    frame=34574 fps=456 q=-0.0 size=N/A time=00:24:02.02 bitrate=N/A speed=  19x    [Parsed_psnr_10 @ 000001a0b745bd40] PSNR y:46.859338 u:50.251002 v:49.863105 average:47.687155 min:39.670008 max:inf
[out#0/null @ 000001a0b6b24780] video:14928KiB audio:271716KiB subtitle:0KiB other streams:0KiB global headers:0KiB muxing overhead: unknown
frame=34741 fps=456 q=-0.0 Lsize=N/A time=00:24:08.98 bitrate=N/A speed=  19x    
